<mxfile host="Electron" modified="2024-06-30T18:23:48.541Z" agent="Mozilla/5.0 (Macintosh; Intel Mac OS X 10_15_7) AppleWebKit/537.36 (KHTML, like Gecko) draw.io/24.5.3 Chrome/124.0.6367.207 Electron/30.0.6 Safari/537.36" etag="wklv-qC8bAh25K9egKHJ" version="24.5.3" type="device">
  <diagram name="Page-1" id="c4acf3e9-155e-7222-9cf6-157b1a14988f">
    <mxGraphModel dx="1196" dy="610" grid="1" gridSize="10" guides="1" tooltips="1" connect="1" arrows="1" fold="1" page="1" pageScale="1" pageWidth="1169" pageHeight="827" background="none" math="0" shadow="0">
      <root>
        <mxCell id="0" />
        <mxCell id="1" parent="0" />
        <mxCell id="on0BcYr9je2dkrzuS52b-1" value="Infrastructure Instance e.g. dev:dev01.dev:dev02, dev:qa01, prod:green etc. environments" style="rounded=0;whiteSpace=wrap;html=1;dashed=1;fillColor=none;align=left;verticalAlign=top;fontStyle=1;dashPattern=1 4;" parent="1" vertex="1">
          <mxGeometry x="110" y="50" width="690" height="590" as="geometry" />
        </mxCell>
        <mxCell id="on0BcYr9je2dkrzuS52b-2" value="private network" style="rounded=0;whiteSpace=wrap;html=1;fillColor=none;align=left;horizontal=1;verticalAlign=top;spacing=2;opacity=50;" parent="1" vertex="1">
          <mxGeometry x="130" y="80" width="500" height="540" as="geometry" />
        </mxCell>
        <mxCell id="on0BcYr9je2dkrzuS52b-4" value="" style="rounded=0;whiteSpace=wrap;html=1;fillColor=#dae8fc;fontStyle=3;verticalAlign=top;align=center;opacity=40;strokeColor=#6c8ebf;" parent="1" vertex="1">
          <mxGeometry x="240" y="110" width="360" height="500" as="geometry" />
        </mxCell>
        <mxCell id="on0BcYr9je2dkrzuS52b-3" value="public network" style="rounded=0;whiteSpace=wrap;html=1;fillColor=none;align=left;horizontal=1;verticalAlign=top;spacing=2;opacity=50;" parent="1" vertex="1">
          <mxGeometry x="660" y="80" width="120" height="540" as="geometry" />
        </mxCell>
        <mxCell id="on0BcYr9je2dkrzuS52b-6" value="k8s" style="rounded=0;whiteSpace=wrap;html=1;fillColor=none;fontStyle=3;verticalAlign=top;align=left;opacity=50;spacingLeft=0;spacingTop=0;strokeWidth=2;" parent="1" vertex="1">
          <mxGeometry x="150" y="120" width="460" height="140" as="geometry" />
        </mxCell>
        <mxCell id="on0BcYr9je2dkrzuS52b-7" value="DB server 1&lt;br&gt;(e.g. postgres)" style="rounded=0;whiteSpace=wrap;html=1;fillColor=none;fontStyle=3;verticalAlign=top;align=left;opacity=50;strokeWidth=2;" parent="1" vertex="1">
          <mxGeometry x="150" y="270" width="460" height="150" as="geometry" />
        </mxCell>
        <mxCell id="on0BcYr9je2dkrzuS52b-64" value="DB server 2&lt;br&gt;(e.g. neo4j)" style="rounded=0;whiteSpace=wrap;html=1;fillColor=none;fontStyle=3;verticalAlign=top;align=left;opacity=50;strokeWidth=2;" parent="1" vertex="1">
          <mxGeometry x="150" y="430" width="460" height="70" as="geometry" />
        </mxCell>
        <mxCell id="on0BcYr9je2dkrzuS52b-65" value="Message Bus&lt;br&gt;(e.g. kafka)" style="rounded=0;whiteSpace=wrap;html=1;fillColor=none;fontStyle=3;verticalAlign=top;align=left;opacity=50;strokeWidth=2;" parent="1" vertex="1">
          <mxGeometry x="150" y="510" width="460" height="50" as="geometry" />
        </mxCell>
        <mxCell id="on0BcYr9je2dkrzuS52b-68" value="" style="rounded=0;whiteSpace=wrap;html=1;fontColor=#000000;strokeWidth=1;fillColor=default;fontSize=10;" parent="1" vertex="1">
          <mxGeometry x="260" y="195" width="80" height="20" as="geometry" />
        </mxCell>
        <mxCell id="on0BcYr9je2dkrzuS52b-69" value="&lt;font style=&quot;font-size: 10px;&quot;&gt;Service(T)&lt;/font&gt;" style="rounded=0;whiteSpace=wrap;html=1;fontColor=#000000;strokeWidth=1;fillColor=default;fontSize=10;" parent="1" vertex="1">
          <mxGeometry x="250" y="205" width="80" height="20" as="geometry" />
        </mxCell>
        <mxCell id="on0BcYr9je2dkrzuS52b-71" value="tenant1" style="rounded=0;whiteSpace=wrap;html=1;fontSize=10;fontColor=#000000;strokeWidth=1;fillColor=none;align=left;verticalAlign=top;dashed=1;" parent="1" vertex="1">
          <mxGeometry x="310" y="280" width="160" height="60" as="geometry" />
        </mxCell>
        <mxCell id="on0BcYr9je2dkrzuS52b-72" value="tenant2" style="rounded=0;whiteSpace=wrap;html=1;fontSize=10;fontColor=#000000;strokeWidth=1;fillColor=none;align=left;verticalAlign=top;dashed=1;" parent="1" vertex="1">
          <mxGeometry x="310" y="350" width="160" height="60" as="geometry" />
        </mxCell>
        <mxCell id="on0BcYr9je2dkrzuS52b-73" value="" style="rounded=0;whiteSpace=wrap;html=1;fontColor=#000000;strokeWidth=1;fillColor=default;fontSize=10;" parent="1" vertex="1">
          <mxGeometry x="310" y="150" width="80" height="20" as="geometry" />
        </mxCell>
        <mxCell id="on0BcYr9je2dkrzuS52b-74" value="&lt;font style=&quot;font-size: 10px&quot;&gt;Service(A)&lt;/font&gt;" style="rounded=0;whiteSpace=wrap;html=1;fontColor=#000000;strokeWidth=1;fillColor=default;fontSize=10;" parent="1" vertex="1">
          <mxGeometry x="300" y="160" width="80" height="20" as="geometry" />
        </mxCell>
        <mxCell id="on0BcYr9je2dkrzuS52b-75" value="" style="rounded=0;whiteSpace=wrap;html=1;fontColor=#000000;strokeWidth=1;fillColor=default;fontSize=10;" parent="1" vertex="1">
          <mxGeometry x="370" y="195" width="80" height="20" as="geometry" />
        </mxCell>
        <mxCell id="on0BcYr9je2dkrzuS52b-76" value="&lt;font style=&quot;font-size: 10px&quot;&gt;Service(U)&lt;/font&gt;" style="rounded=0;whiteSpace=wrap;html=1;fontColor=#000000;strokeWidth=1;fillColor=default;fontSize=10;" parent="1" vertex="1">
          <mxGeometry x="360" y="205" width="80" height="20" as="geometry" />
        </mxCell>
        <mxCell id="on0BcYr9je2dkrzuS52b-77" value="" style="shape=cylinder3;whiteSpace=wrap;html=1;boundedLbl=1;backgroundOutline=1;size=8.629629629629619;fontColor=#FF0000;strokeWidth=1;fillColor=default;" parent="1" vertex="1">
          <mxGeometry x="385" y="365" width="30" height="40" as="geometry" />
        </mxCell>
        <mxCell id="on0BcYr9je2dkrzuS52b-79" value="" style="rounded=0;whiteSpace=wrap;html=1;fontColor=#000000;strokeWidth=1;fillColor=default;fontSize=10;" parent="1" vertex="1">
          <mxGeometry x="470" y="150" width="80" height="20" as="geometry" />
        </mxCell>
        <mxCell id="on0BcYr9je2dkrzuS52b-80" value="&lt;font style=&quot;font-size: 10px&quot;&gt;Service(D)&lt;/font&gt;" style="rounded=0;whiteSpace=wrap;html=1;fontColor=#000000;strokeWidth=1;fillColor=default;fontSize=10;" parent="1" vertex="1">
          <mxGeometry x="460" y="160" width="80" height="20" as="geometry" />
        </mxCell>
        <mxCell id="on0BcYr9je2dkrzuS52b-81" value="" style="rounded=0;whiteSpace=wrap;html=1;fontColor=#000000;strokeWidth=1;fillColor=default;fontSize=10;" parent="1" vertex="1">
          <mxGeometry x="510" y="195" width="80" height="20" as="geometry" />
        </mxCell>
        <mxCell id="on0BcYr9je2dkrzuS52b-82" value="&lt;font style=&quot;font-size: 10px&quot;&gt;Service(F)&lt;/font&gt;" style="rounded=0;whiteSpace=wrap;html=1;fontColor=#000000;strokeWidth=1;fillColor=default;fontSize=10;" parent="1" vertex="1">
          <mxGeometry x="500" y="205" width="80" height="20" as="geometry" />
        </mxCell>
        <mxCell id="on0BcYr9je2dkrzuS52b-78" value="" style="shape=cylinder3;whiteSpace=wrap;html=1;boundedLbl=1;backgroundOutline=1;size=8.629629629629619;fontColor=#FF0000;strokeWidth=1;fillColor=default;" parent="1" vertex="1">
          <mxGeometry x="360" y="295" width="30" height="40" as="geometry" />
        </mxCell>
        <mxCell id="on0BcYr9je2dkrzuS52b-88" value="" style="shape=cylinder3;whiteSpace=wrap;html=1;boundedLbl=1;backgroundOutline=1;size=8.629629629629619;fontColor=#FF0000;strokeWidth=1;fillColor=default;" parent="1" vertex="1">
          <mxGeometry x="510" y="325" width="30" height="40" as="geometry" />
        </mxCell>
        <mxCell id="on0BcYr9je2dkrzuS52b-89" value="" style="endArrow=classic;html=1;rounded=0;fontSize=10;fontColor=#000000;exitX=0.5;exitY=1;exitDx=0;exitDy=0;edgeStyle=orthogonalEdgeStyle;" parent="1" source="on0BcYr9je2dkrzuS52b-80" target="on0BcYr9je2dkrzuS52b-88" edge="1">
          <mxGeometry width="50" height="50" relative="1" as="geometry">
            <mxPoint x="580" y="270" as="sourcePoint" />
            <mxPoint x="605" y="485" as="targetPoint" />
            <Array as="points">
              <mxPoint x="490" y="180" />
              <mxPoint x="490" y="345" />
            </Array>
          </mxGeometry>
        </mxCell>
        <mxCell id="on0BcYr9je2dkrzuS52b-90" value="" style="endArrow=classic;html=1;rounded=0;fontSize=10;fontColor=#000000;exitX=0.5;exitY=1;exitDx=0;exitDy=0;edgeStyle=orthogonalEdgeStyle;" parent="1" source="on0BcYr9je2dkrzuS52b-82" target="on0BcYr9je2dkrzuS52b-88" edge="1">
          <mxGeometry width="50" height="50" relative="1" as="geometry">
            <mxPoint x="630" y="310" as="sourcePoint" />
            <mxPoint x="605" y="485" as="targetPoint" />
            <Array as="points">
              <mxPoint x="525" y="225" />
            </Array>
          </mxGeometry>
        </mxCell>
        <mxCell id="HGr7khHlh2UES-DU35sZ-2" value="" style="html=1;rounded=0;opacity=50;" parent="1" vertex="1">
          <mxGeometry x="625" y="120" width="10" height="10" as="geometry" />
        </mxCell>
        <mxCell id="HGr7khHlh2UES-DU35sZ-3" value="" style="endArrow=none;html=1;rounded=0;align=center;verticalAlign=top;endFill=0;labelBackgroundColor=none;endSize=2;" parent="1" source="HGr7khHlh2UES-DU35sZ-2" target="HGr7khHlh2UES-DU35sZ-4" edge="1">
          <mxGeometry relative="1" as="geometry" />
        </mxCell>
        <mxCell id="HGr7khHlh2UES-DU35sZ-4" value="" style="ellipse;html=1;fontSize=11;align=center;fillColor=none;points=[];aspect=fixed;resizable=0;verticalAlign=bottom;labelPosition=center;verticalLabelPosition=top;flipH=1;opacity=50;" parent="1" vertex="1">
          <mxGeometry x="638" y="120" width="8" height="8" as="geometry" />
        </mxCell>
        <mxCell id="HGr7khHlh2UES-DU35sZ-5" value="" style="html=1;rounded=0;opacity=50;" parent="1" vertex="1">
          <mxGeometry x="655" y="119" width="10" height="10" as="geometry" />
        </mxCell>
        <mxCell id="HGr7khHlh2UES-DU35sZ-6" value="" style="endArrow=none;html=1;rounded=0;align=center;verticalAlign=top;endFill=0;labelBackgroundColor=none;endSize=2;" parent="1" source="HGr7khHlh2UES-DU35sZ-5" target="HGr7khHlh2UES-DU35sZ-7" edge="1">
          <mxGeometry relative="1" as="geometry">
            <mxPoint x="890" y="277" as="targetPoint" />
          </mxGeometry>
        </mxCell>
        <mxCell id="HGr7khHlh2UES-DU35sZ-7" value="" style="shape=requiredInterface;html=1;fontSize=11;align=center;fillColor=none;points=[];aspect=fixed;resizable=0;verticalAlign=bottom;labelPosition=center;verticalLabelPosition=top;flipH=1;opacity=50;rotation=-177;" parent="1" vertex="1">
          <mxGeometry x="646" y="119" width="5" height="10" as="geometry" />
        </mxCell>
        <mxCell id="HGr7khHlh2UES-DU35sZ-9" value="&lt;font style=&quot;font-size: 10px&quot;&gt;Bastion&lt;br&gt;(Jump Server)&lt;br&gt;&lt;/font&gt;" style="rounded=0;whiteSpace=wrap;html=1;fontColor=#000000;strokeWidth=1;fillColor=default;fontSize=10;" parent="1" vertex="1">
          <mxGeometry x="680" y="160" width="80" height="50" as="geometry" />
        </mxCell>
        <mxCell id="g5akTVtUyzc8B_gRLDid-1" value="..." style="rounded=0;whiteSpace=wrap;html=1;fillColor=none;fontStyle=3;verticalAlign=top;align=left;opacity=50;strokeWidth=2;" parent="1" vertex="1">
          <mxGeometry x="150" y="570" width="460" height="30" as="geometry" />
        </mxCell>
        <mxCell id="woWneKCFUSPdi-5GJ0YE-1" value="" style="rounded=0;whiteSpace=wrap;html=1;fontSize=10;fontColor=#000000;strokeWidth=1;fillColor=none;align=left;verticalAlign=top;" parent="1" vertex="1">
          <mxGeometry x="250" y="527.5" width="330" height="15" as="geometry" />
        </mxCell>
        <mxCell id="on0BcYr9je2dkrzuS52b-67" value="" style="shape=cylinder3;whiteSpace=wrap;html=1;boundedLbl=1;backgroundOutline=1;size=8.629629629629619;fontColor=#FF0000;strokeWidth=1;fillColor=default;" parent="1" vertex="1">
          <mxGeometry x="250" y="450" width="30" height="40" as="geometry" />
        </mxCell>
        <mxCell id="woWneKCFUSPdi-5GJ0YE-3" value="" style="endArrow=classic;html=1;rounded=0;fontSize=10;fontColor=#000000;edgeStyle=orthogonalEdgeStyle;startArrow=classic;startFill=1;" parent="1" source="on0BcYr9je2dkrzuS52b-69" target="on0BcYr9je2dkrzuS52b-67" edge="1">
          <mxGeometry width="50" height="50" relative="1" as="geometry">
            <mxPoint x="410" y="235" as="sourcePoint" />
            <mxPoint x="410" y="375" as="targetPoint" />
            <Array as="points">
              <mxPoint x="265" y="330" />
              <mxPoint x="265" y="330" />
            </Array>
          </mxGeometry>
        </mxCell>
        <mxCell id="woWneKCFUSPdi-5GJ0YE-4" value="" style="endArrow=classic;html=1;rounded=0;fontSize=10;fontColor=#000000;edgeStyle=orthogonalEdgeStyle;startArrow=classic;startFill=1;" parent="1" source="on0BcYr9je2dkrzuS52b-69" target="woWneKCFUSPdi-5GJ0YE-1" edge="1">
          <mxGeometry width="50" height="50" relative="1" as="geometry">
            <mxPoint x="275" y="235" as="sourcePoint" />
            <mxPoint x="275" y="450" as="targetPoint" />
            <Array as="points">
              <mxPoint x="290" y="370" />
              <mxPoint x="290" y="370" />
            </Array>
          </mxGeometry>
        </mxCell>
        <mxCell id="woWneKCFUSPdi-5GJ0YE-5" value="" style="endArrow=classic;html=1;rounded=0;fontSize=10;fontColor=#000000;edgeStyle=orthogonalEdgeStyle;startArrow=classic;startFill=1;" parent="1" target="woWneKCFUSPdi-5GJ0YE-1" edge="1">
          <mxGeometry width="50" height="50" relative="1" as="geometry">
            <mxPoint x="429.5700000000001" y="225" as="sourcePoint" />
            <mxPoint x="429.5700000000001" y="522.5" as="targetPoint" />
            <Array as="points">
              <mxPoint x="430" y="377" />
              <mxPoint x="430" y="377" />
            </Array>
          </mxGeometry>
        </mxCell>
        <mxCell id="woWneKCFUSPdi-5GJ0YE-6" value="" style="endArrow=classic;html=1;rounded=0;fontSize=10;fontColor=#000000;edgeStyle=orthogonalEdgeStyle;startArrow=classic;startFill=1;" parent="1" source="on0BcYr9je2dkrzuS52b-76" target="on0BcYr9je2dkrzuS52b-78" edge="1">
          <mxGeometry width="50" height="50" relative="1" as="geometry">
            <mxPoint x="420.0000000000001" y="235" as="sourcePoint" />
            <mxPoint x="420.0000000000001" y="532.5" as="targetPoint" />
            <Array as="points">
              <mxPoint x="375" y="240" />
              <mxPoint x="375" y="240" />
            </Array>
          </mxGeometry>
        </mxCell>
        <mxCell id="woWneKCFUSPdi-5GJ0YE-7" value="" style="endArrow=classic;html=1;rounded=0;fontSize=10;fontColor=#000000;edgeStyle=orthogonalEdgeStyle;startArrow=classic;startFill=1;" parent="1" edge="1">
          <mxGeometry width="50" height="50" relative="1" as="geometry">
            <mxPoint x="399.93000000000006" y="225" as="sourcePoint" />
            <mxPoint x="399.93000000000006" y="365" as="targetPoint" />
            <Array as="points">
              <mxPoint x="399.92999999999995" y="290" />
              <mxPoint x="399.92999999999995" y="290" />
            </Array>
          </mxGeometry>
        </mxCell>
        <mxCell id="woWneKCFUSPdi-5GJ0YE-8" value="" style="endArrow=classic;html=1;rounded=0;fontSize=10;fontColor=#000000;edgeStyle=orthogonalEdgeStyle;startArrow=classic;startFill=1;" parent="1" target="woWneKCFUSPdi-5GJ0YE-1" edge="1">
          <mxGeometry width="50" height="50" relative="1" as="geometry">
            <mxPoint x="569.5300000000001" y="225" as="sourcePoint" />
            <mxPoint x="569.5300000000001" y="522.5" as="targetPoint" />
            <Array as="points">
              <mxPoint x="570" y="377" />
              <mxPoint x="570" y="377" />
            </Array>
          </mxGeometry>
        </mxCell>
      </root>
    </mxGraphModel>
  </diagram>
</mxfile>
